<mxfile host="65bd71144e">
    <diagram id="c3YTAsuq5ZH21rkFoFP3" name="Page-1">
        <mxGraphModel dx="846" dy="1124" grid="1" gridSize="10" guides="1" tooltips="1" connect="1" arrows="1" fold="1" page="1" pageScale="1" pageWidth="850" pageHeight="1100" math="0" shadow="0">
            <root>
                <mxCell id="0"/>
                <mxCell id="1" parent="0"/>
                <mxCell id="100" value="Detail Pagina" style="swimlane;childLayout=stackLayout;resizeParent=1;resizeParentMax=0;startSize=20;html=1;" parent="1" vertex="1">
                    <mxGeometry x="370" y="60" width="1005" height="1010" as="geometry"/>
                </mxCell>
                <mxCell id="101" value="Controller" style="swimlane;startSize=20;html=1;" parent="100" vertex="1">
                    <mxGeometry y="20" width="170" height="990" as="geometry"/>
                </mxCell>
                <mxCell id="108" style="edgeStyle=none;html=1;entryX=0.5;entryY=0;entryDx=0;entryDy=0;" parent="101" source="104" target="105" edge="1">
                    <mxGeometry relative="1" as="geometry"/>
                </mxCell>
                <mxCell id="104" value="" style="ellipse;whiteSpace=wrap;html=1;aspect=fixed;fillColor=#008a00;fontColor=#ffffff;strokeColor=#005700;" parent="101" vertex="1">
                    <mxGeometry x="65" y="50" width="40" height="40" as="geometry"/>
                </mxCell>
                <mxCell id="109" style="edgeStyle=none;html=1;entryX=0.5;entryY=0;entryDx=0;entryDy=0;" parent="101" source="105" target="106" edge="1">
                    <mxGeometry relative="1" as="geometry"/>
                </mxCell>
                <mxCell id="105" value="Gerechten" style="rounded=0;whiteSpace=wrap;html=1;" parent="101" vertex="1">
                    <mxGeometry x="32.5" y="140" width="105" height="60" as="geometry"/>
                </mxCell>
                <mxCell id="110" style="edgeStyle=none;html=1;entryX=0.5;entryY=0;entryDx=0;entryDy=0;" parent="101" source="106" target="107" edge="1">
                    <mxGeometry relative="1" as="geometry"/>
                </mxCell>
                <mxCell id="106" value="HTML" style="shape=document;whiteSpace=wrap;html=1;boundedLbl=1;" parent="101" vertex="1">
                    <mxGeometry x="25" y="800" width="120" height="80" as="geometry"/>
                </mxCell>
                <mxCell id="107" value="" style="ellipse;whiteSpace=wrap;html=1;aspect=fixed;fillColor=#a20025;fontColor=#ffffff;strokeColor=#6F0000;" parent="101" vertex="1">
                    <mxGeometry x="45" y="900" width="80" height="80" as="geometry"/>
                </mxCell>
                <mxCell id="102" value="Business Rules" style="swimlane;startSize=20;html=1;" parent="100" vertex="1">
                    <mxGeometry x="170" y="20" width="600" height="990" as="geometry"/>
                </mxCell>
                <mxCell id="122" style="edgeStyle=none;html=1;entryX=0;entryY=0.5;entryDx=0;entryDy=0;" parent="102" source="111" target="119" edge="1">
                    <mxGeometry relative="1" as="geometry"/>
                </mxCell>
                <mxCell id="123" style="edgeStyle=none;html=1;entryX=0;entryY=0.5;entryDx=0;entryDy=0;" parent="102" source="111" target="120" edge="1">
                    <mxGeometry relative="1" as="geometry"/>
                </mxCell>
                <mxCell id="124" style="edgeStyle=none;html=1;entryX=0;entryY=0.5;entryDx=0;entryDy=0;" parent="102" source="111" target="121" edge="1">
                    <mxGeometry relative="1" as="geometry"/>
                </mxCell>
                <mxCell id="209" style="edgeStyle=none;html=1;entryX=0;entryY=0.5;entryDx=0;entryDy=0;" parent="102" source="111" target="180" edge="1">
                    <mxGeometry relative="1" as="geometry"/>
                </mxCell>
                <mxCell id="210" style="edgeStyle=none;html=1;entryX=0;entryY=0.5;entryDx=0;entryDy=0;" parent="102" source="111" target="205" edge="1">
                    <mxGeometry relative="1" as="geometry"/>
                </mxCell>
                <mxCell id="211" style="edgeStyle=none;html=1;entryX=0;entryY=0.5;entryDx=0;entryDy=0;" parent="102" source="111" target="206" edge="1">
                    <mxGeometry relative="1" as="geometry"/>
                </mxCell>
                <mxCell id="217" style="edgeStyle=none;html=1;entryX=0;entryY=0.5;entryDx=0;entryDy=0;" parent="102" source="111" target="214" edge="1">
                    <mxGeometry relative="1" as="geometry"/>
                </mxCell>
                <mxCell id="218" style="edgeStyle=none;html=1;entryX=0;entryY=0.5;entryDx=0;entryDy=0;" parent="102" source="111" target="215" edge="1">
                    <mxGeometry relative="1" as="geometry"/>
                </mxCell>
                <mxCell id="219" style="edgeStyle=none;html=1;entryX=0;entryY=0.5;entryDx=0;entryDy=0;" parent="102" source="111" target="216" edge="1">
                    <mxGeometry relative="1" as="geometry"/>
                </mxCell>
                <mxCell id="221" style="edgeStyle=none;html=1;entryX=0;entryY=0.5;entryDx=0;entryDy=0;" edge="1" parent="102" source="111" target="170">
                    <mxGeometry relative="1" as="geometry"/>
                </mxCell>
                <mxCell id="111" value="selectGerecht" style="rounded=0;whiteSpace=wrap;html=1;" parent="102" vertex="1">
                    <mxGeometry x="55" y="140" width="120" height="60" as="geometry"/>
                </mxCell>
                <mxCell id="119" value="selectKeuken" style="rounded=0;whiteSpace=wrap;html=1;" parent="102" vertex="1">
                    <mxGeometry x="415" y="140" width="120" height="60" as="geometry"/>
                </mxCell>
                <mxCell id="120" value="selectType" style="rounded=0;whiteSpace=wrap;html=1;" parent="102" vertex="1">
                    <mxGeometry x="415" y="220" width="120" height="60" as="geometry"/>
                </mxCell>
                <mxCell id="121" value="selectIngredient" style="rounded=0;whiteSpace=wrap;html=1;" parent="102" vertex="1">
                    <mxGeometry x="415" y="300" width="120" height="60" as="geometry"/>
                </mxCell>
                <mxCell id="170" value="selectWaardering" style="rounded=0;whiteSpace=wrap;html=1;" parent="102" vertex="1">
                    <mxGeometry x="415" y="370" width="120" height="60" as="geometry"/>
                </mxCell>
                <mxCell id="180" value="selectBereidingswijze" style="rounded=0;whiteSpace=wrap;html=1;" parent="102" vertex="1">
                    <mxGeometry x="415" y="450" width="120" height="60" as="geometry"/>
                </mxCell>
                <mxCell id="205" value="selectFavoriet" style="rounded=0;whiteSpace=wrap;html=1;" parent="102" vertex="1">
                    <mxGeometry x="415" y="530" width="120" height="60" as="geometry"/>
                </mxCell>
                <mxCell id="206" value="selectOpmerkingen" style="rounded=0;whiteSpace=wrap;html=1;" parent="102" vertex="1">
                    <mxGeometry x="415" y="610" width="120" height="60" as="geometry"/>
                </mxCell>
                <mxCell id="214" value="Prijs berekenen" style="rounded=0;whiteSpace=wrap;html=1;" parent="102" vertex="1">
                    <mxGeometry x="415" y="690" width="120" height="60" as="geometry"/>
                </mxCell>
                <mxCell id="215" value="CalorieÃ«n berekenen" style="rounded=0;whiteSpace=wrap;html=1;" parent="102" vertex="1">
                    <mxGeometry x="415" y="770" width="120" height="60" as="geometry"/>
                </mxCell>
                <mxCell id="216" value="Waardering berekenen" style="rounded=0;whiteSpace=wrap;html=1;" parent="102" vertex="1">
                    <mxGeometry x="415" y="850" width="120" height="60" as="geometry"/>
                </mxCell>
                <mxCell id="103" value="Model" style="swimlane;startSize=20;html=1;" parent="100" vertex="1">
                    <mxGeometry x="770" y="20" width="235" height="990" as="geometry"/>
                </mxCell>
                <mxCell id="117" value="Gerecht" style="swimlane;" parent="103" vertex="1">
                    <mxGeometry x="75" y="50" width="105" height="80" as="geometry"/>
                </mxCell>
                <mxCell id="154" value="selectKeukenType" style="rounded=0;whiteSpace=wrap;html=1;" parent="103" vertex="1">
                    <mxGeometry x="68" y="190" width="120" height="60" as="geometry"/>
                </mxCell>
                <mxCell id="171" value="selectIngredient" style="rounded=0;whiteSpace=wrap;html=1;" parent="103" vertex="1">
                    <mxGeometry x="68" y="300" width="120" height="60" as="geometry"/>
                </mxCell>
                <mxCell id="181" value="selectGerechtInfo" style="rounded=0;whiteSpace=wrap;html=1;" parent="103" vertex="1">
                    <mxGeometry x="68" y="500" width="120" height="60" as="geometry"/>
                </mxCell>
                <mxCell id="118" style="edgeStyle=none;html=1;entryX=0.5;entryY=0;entryDx=0;entryDy=0;" parent="100" source="117" target="111" edge="1">
                    <mxGeometry relative="1" as="geometry">
                        <mxPoint x="275" y="110" as="targetPoint"/>
                        <Array as="points">
                            <mxPoint x="285" y="110"/>
                        </Array>
                    </mxGeometry>
                </mxCell>
                <mxCell id="155" style="edgeStyle=none;html=1;entryX=1.008;entryY=0.633;entryDx=0;entryDy=0;entryPerimeter=0;" parent="100" source="154" target="119" edge="1">
                    <mxGeometry relative="1" as="geometry"/>
                </mxCell>
                <mxCell id="156" style="edgeStyle=none;html=1;entryX=1;entryY=0.5;entryDx=0;entryDy=0;" parent="100" source="154" target="120" edge="1">
                    <mxGeometry relative="1" as="geometry">
                        <mxPoint x="675" y="270" as="targetPoint"/>
                    </mxGeometry>
                </mxCell>
                <mxCell id="172" style="edgeStyle=none;html=1;exitX=0;exitY=0.5;exitDx=0;exitDy=0;entryX=1;entryY=0.5;entryDx=0;entryDy=0;" parent="100" source="171" target="121" edge="1">
                    <mxGeometry relative="1" as="geometry"/>
                </mxCell>
                <mxCell id="182" style="edgeStyle=none;html=1;entryX=1;entryY=0.617;entryDx=0;entryDy=0;entryPerimeter=0;" parent="100" source="181" target="170" edge="1">
                    <mxGeometry relative="1" as="geometry"/>
                </mxCell>
                <mxCell id="183" style="edgeStyle=none;html=1;entryX=1;entryY=0.5;entryDx=0;entryDy=0;" parent="100" source="181" target="180" edge="1">
                    <mxGeometry relative="1" as="geometry"/>
                </mxCell>
                <mxCell id="207" style="edgeStyle=none;html=1;entryX=1;entryY=0.5;entryDx=0;entryDy=0;" parent="100" source="181" target="205" edge="1">
                    <mxGeometry relative="1" as="geometry"/>
                </mxCell>
                <mxCell id="208" style="edgeStyle=none;html=1;entryX=1;entryY=0.5;entryDx=0;entryDy=0;" parent="100" source="181" target="206" edge="1">
                    <mxGeometry relative="1" as="geometry"/>
                </mxCell>
                <mxCell id="112" style="edgeStyle=none;html=1;" parent="1" source="111" edge="1">
                    <mxGeometry relative="1" as="geometry">
                        <mxPoint x="515" y="250" as="targetPoint"/>
                    </mxGeometry>
                </mxCell>
                <mxCell id="125" value="KeukenType" style="swimlane;childLayout=stackLayout;resizeParent=1;resizeParentMax=0;startSize=20;html=1;" parent="1" vertex="1">
                    <mxGeometry x="370" y="1120" width="1005" height="250" as="geometry"/>
                </mxCell>
                <mxCell id="126" value="Controller" style="swimlane;startSize=20;html=1;" parent="125" vertex="1">
                    <mxGeometry y="20" width="170" height="230" as="geometry"/>
                </mxCell>
                <mxCell id="134" value="Business Rules" style="swimlane;startSize=20;html=1;" parent="125" vertex="1">
                    <mxGeometry x="170" y="20" width="600" height="230" as="geometry"/>
                </mxCell>
                <mxCell id="138" value="selectKeukenType" style="rounded=0;whiteSpace=wrap;html=1;" parent="134" vertex="1">
                    <mxGeometry x="55" y="140" width="120" height="60" as="geometry"/>
                </mxCell>
                <mxCell id="142" value="Model" style="swimlane;startSize=20;html=1;" parent="125" vertex="1">
                    <mxGeometry x="770" y="20" width="235" height="230" as="geometry"/>
                </mxCell>
                <mxCell id="143" value="KeukenType" style="swimlane;startSize=23;" parent="142" vertex="1">
                    <mxGeometry x="75" y="50" width="105" height="80" as="geometry"/>
                </mxCell>
                <mxCell id="144" style="edgeStyle=none;html=1;entryX=0.5;entryY=0;entryDx=0;entryDy=0;" parent="125" source="143" target="138" edge="1">
                    <mxGeometry relative="1" as="geometry">
                        <mxPoint x="275" y="110" as="targetPoint"/>
                        <Array as="points">
                            <mxPoint x="285" y="110"/>
                        </Array>
                    </mxGeometry>
                </mxCell>
                <mxCell id="145" value="Ingredient" style="swimlane;childLayout=stackLayout;resizeParent=1;resizeParentMax=0;startSize=20;html=1;" parent="1" vertex="1">
                    <mxGeometry x="370" y="1410" width="1005" height="250" as="geometry"/>
                </mxCell>
                <mxCell id="146" value="Controller" style="swimlane;startSize=20;html=1;" parent="145" vertex="1">
                    <mxGeometry y="20" width="170" height="230" as="geometry"/>
                </mxCell>
                <mxCell id="147" value="Business Rules" style="swimlane;startSize=20;html=1;" parent="145" vertex="1">
                    <mxGeometry x="170" y="20" width="600" height="230" as="geometry"/>
                </mxCell>
                <mxCell id="158" style="edgeStyle=none;html=1;entryX=0;entryY=0.5;entryDx=0;entryDy=0;" parent="147" source="148" target="157" edge="1">
                    <mxGeometry relative="1" as="geometry"/>
                </mxCell>
                <mxCell id="148" value="selectIngredient" style="rounded=0;whiteSpace=wrap;html=1;" parent="147" vertex="1">
                    <mxGeometry x="55" y="140" width="120" height="60" as="geometry"/>
                </mxCell>
                <mxCell id="157" value="selectArtikel" style="rounded=0;whiteSpace=wrap;html=1;" parent="147" vertex="1">
                    <mxGeometry x="420" y="140" width="120" height="60" as="geometry"/>
                </mxCell>
                <mxCell id="149" value="Model" style="swimlane;startSize=20;html=1;" parent="145" vertex="1">
                    <mxGeometry x="770" y="20" width="235" height="230" as="geometry"/>
                </mxCell>
                <mxCell id="150" value="Ingredient" style="swimlane;startSize=23;" parent="149" vertex="1">
                    <mxGeometry x="75" y="50" width="105" height="80" as="geometry"/>
                </mxCell>
                <mxCell id="168" value="selectArtikel" style="rounded=0;whiteSpace=wrap;html=1;" parent="149" vertex="1">
                    <mxGeometry x="67.5" y="140" width="120" height="60" as="geometry"/>
                </mxCell>
                <mxCell id="151" style="edgeStyle=none;html=1;entryX=0.5;entryY=0;entryDx=0;entryDy=0;" parent="145" source="150" target="148" edge="1">
                    <mxGeometry relative="1" as="geometry">
                        <mxPoint x="275" y="110" as="targetPoint"/>
                        <Array as="points">
                            <mxPoint x="285" y="110"/>
                        </Array>
                    </mxGeometry>
                </mxCell>
                <mxCell id="169" style="edgeStyle=none;html=1;entryX=1;entryY=0.5;entryDx=0;entryDy=0;" parent="145" source="168" target="157" edge="1">
                    <mxGeometry relative="1" as="geometry"/>
                </mxCell>
                <mxCell id="159" value="Artikel" style="swimlane;childLayout=stackLayout;resizeParent=1;resizeParentMax=0;startSize=20;html=1;" parent="1" vertex="1">
                    <mxGeometry x="370" y="1720" width="1005" height="250" as="geometry"/>
                </mxCell>
                <mxCell id="160" value="Controller" style="swimlane;startSize=20;html=1;" parent="159" vertex="1">
                    <mxGeometry y="20" width="170" height="230" as="geometry"/>
                </mxCell>
                <mxCell id="161" value="Business Rules" style="swimlane;startSize=20;html=1;" parent="159" vertex="1">
                    <mxGeometry x="170" y="20" width="600" height="230" as="geometry"/>
                </mxCell>
                <mxCell id="163" value="selectArtikel" style="rounded=0;whiteSpace=wrap;html=1;" parent="161" vertex="1">
                    <mxGeometry x="55" y="140" width="120" height="60" as="geometry"/>
                </mxCell>
                <mxCell id="165" value="Model" style="swimlane;startSize=20;html=1;" parent="159" vertex="1">
                    <mxGeometry x="770" y="20" width="235" height="230" as="geometry"/>
                </mxCell>
                <mxCell id="166" value="Artikel" style="swimlane;startSize=23;" parent="165" vertex="1">
                    <mxGeometry x="75" y="50" width="105" height="80" as="geometry"/>
                </mxCell>
                <mxCell id="167" style="edgeStyle=none;html=1;entryX=0.5;entryY=0;entryDx=0;entryDy=0;" parent="159" source="166" target="163" edge="1">
                    <mxGeometry relative="1" as="geometry">
                        <mxPoint x="275" y="110" as="targetPoint"/>
                        <Array as="points">
                            <mxPoint x="285" y="110"/>
                        </Array>
                    </mxGeometry>
                </mxCell>
                <mxCell id="173" value="Gerecht_Info" style="swimlane;childLayout=stackLayout;resizeParent=1;resizeParentMax=0;startSize=20;html=1;" parent="1" vertex="1">
                    <mxGeometry x="370" y="2000" width="1005" height="250" as="geometry"/>
                </mxCell>
                <mxCell id="174" value="Controller" style="swimlane;startSize=20;html=1;" parent="173" vertex="1">
                    <mxGeometry y="20" width="170" height="230" as="geometry"/>
                </mxCell>
                <mxCell id="175" value="Business Rules" style="swimlane;startSize=20;html=1;" parent="173" vertex="1">
                    <mxGeometry x="170" y="20" width="600" height="230" as="geometry"/>
                </mxCell>
                <mxCell id="176" value="selectGerechtInfo" style="rounded=0;whiteSpace=wrap;html=1;" parent="175" vertex="1">
                    <mxGeometry x="55" y="140" width="120" height="60" as="geometry"/>
                </mxCell>
                <mxCell id="191" value="selectUser" style="rounded=0;whiteSpace=wrap;html=1;" parent="175" vertex="1">
                    <mxGeometry x="420" y="140" width="120" height="60" as="geometry"/>
                </mxCell>
                <mxCell id="192" style="edgeStyle=none;html=1;exitX=1;exitY=0.5;exitDx=0;exitDy=0;entryX=0;entryY=0.5;entryDx=0;entryDy=0;" parent="175" source="176" target="191" edge="1">
                    <mxGeometry relative="1" as="geometry">
                        <mxPoint x="410" y="170" as="targetPoint"/>
                    </mxGeometry>
                </mxCell>
                <mxCell id="177" value="Model" style="swimlane;startSize=20;html=1;" parent="173" vertex="1">
                    <mxGeometry x="770" y="20" width="235" height="230" as="geometry"/>
                </mxCell>
                <mxCell id="178" value="Gerecht_Info" style="swimlane;startSize=23;" parent="177" vertex="1">
                    <mxGeometry x="75" y="50" width="105" height="80" as="geometry"/>
                </mxCell>
                <mxCell id="203" value="selectUser" style="rounded=0;whiteSpace=wrap;html=1;" parent="177" vertex="1">
                    <mxGeometry x="67.5" y="140" width="120" height="60" as="geometry"/>
                </mxCell>
                <mxCell id="179" style="edgeStyle=none;html=1;entryX=0.5;entryY=0;entryDx=0;entryDy=0;" parent="173" source="178" target="176" edge="1">
                    <mxGeometry relative="1" as="geometry">
                        <mxPoint x="275" y="110" as="targetPoint"/>
                        <Array as="points">
                            <mxPoint x="285" y="110"/>
                        </Array>
                    </mxGeometry>
                </mxCell>
                <mxCell id="204" style="edgeStyle=none;html=1;entryX=1;entryY=0.5;entryDx=0;entryDy=0;" parent="173" source="203" target="191" edge="1">
                    <mxGeometry relative="1" as="geometry"/>
                </mxCell>
                <mxCell id="194" value="User" style="swimlane;childLayout=stackLayout;resizeParent=1;resizeParentMax=0;startSize=20;html=1;" parent="1" vertex="1">
                    <mxGeometry x="370" y="2290" width="1005" height="250" as="geometry"/>
                </mxCell>
                <mxCell id="195" value="Controller" style="swimlane;startSize=20;html=1;" parent="194" vertex="1">
                    <mxGeometry y="20" width="170" height="230" as="geometry"/>
                </mxCell>
                <mxCell id="196" value="Business Rules" style="swimlane;startSize=20;html=1;" parent="194" vertex="1">
                    <mxGeometry x="170" y="20" width="600" height="230" as="geometry"/>
                </mxCell>
                <mxCell id="197" value="selectUser" style="rounded=0;whiteSpace=wrap;html=1;" parent="196" vertex="1">
                    <mxGeometry x="55" y="140" width="120" height="60" as="geometry"/>
                </mxCell>
                <mxCell id="200" value="Model" style="swimlane;startSize=20;html=1;" parent="194" vertex="1">
                    <mxGeometry x="770" y="20" width="235" height="230" as="geometry"/>
                </mxCell>
                <mxCell id="201" value="User" style="swimlane;startSize=23;" parent="200" vertex="1">
                    <mxGeometry x="75" y="50" width="105" height="80" as="geometry"/>
                </mxCell>
                <mxCell id="202" style="edgeStyle=none;html=1;entryX=0.5;entryY=0;entryDx=0;entryDy=0;" parent="194" source="201" target="197" edge="1">
                    <mxGeometry relative="1" as="geometry">
                        <mxPoint x="275" y="110" as="targetPoint"/>
                        <Array as="points">
                            <mxPoint x="285" y="110"/>
                        </Array>
                    </mxGeometry>
                </mxCell>
            </root>
        </mxGraphModel>
    </diagram>
</mxfile>